<svg xmlns="http://www.w3.org/2000/svg" width="46" height="32" viewBox="0 0 46 32" fill="none">
  <path d="M34.7341 22.7045C34.9102 22.583 35.0498 22.4387 35.1451 22.2799C35.2404 22.121 35.2895 21.9507 35.2895 21.7787C35.2895 21.6067 35.2404 21.4364 35.1451 21.2776C35.0498 21.1187 34.9102 20.9744 34.7341 20.8529L27.3847 15.7579L34.7531 10.6628C34.9289 10.5413 35.0684 10.3969 35.1635 10.2381C35.2587 10.0792 35.3077 9.909 35.3077 9.73706C35.3077 9.56513 35.2587 9.39488 35.1635 9.23604C35.0684 9.07719 34.9289 8.93286 34.7531 8.81129C34.5773 8.68971 34.3685 8.59327 34.1388 8.52748C33.9091 8.46168 33.6629 8.42782 33.4142 8.42782C33.1656 8.42782 32.9194 8.46168 32.6897 8.52748C32.4599 8.59327 32.2512 8.68971 32.0754 8.81129L23.3586 14.8387C23.1825 14.9602 23.0429 15.1045 22.9476 15.2633C22.8523 15.4222 22.8032 15.5925 22.8032 15.7645C22.8032 15.9364 22.8523 16.1067 22.9476 16.2656C23.0429 16.4244 23.1825 16.5687 23.3586 16.6902L32.0754 22.7176C32.797 23.2166 33.9935 23.2166 34.7341 22.7045Z" fill="#7F5AF0"/>
  <path d="M22.2192 22.7045C22.3953 22.583 22.5349 22.4387 22.6302 22.2799C22.7255 22.121 22.7746 21.9507 22.7746 21.7787C22.7746 21.6067 22.7255 21.4364 22.6302 21.2776C22.5349 21.1187 22.3953 20.9744 22.2192 20.8529L14.8698 15.7579L22.2382 10.6628C22.5933 10.4173 22.7928 10.0843 22.7928 9.73706C22.7928 9.38983 22.5933 9.05682 22.2382 8.81129C21.8831 8.56576 21.4015 8.42782 20.8993 8.42782C20.3972 8.42782 19.9156 8.56576 19.5605 8.81129L10.8437 14.8387C10.6677 14.9602 10.528 15.1045 10.4327 15.2633C10.3374 15.4222 10.2883 15.5925 10.2883 15.7645C10.2883 15.9364 10.3374 16.1067 10.4327 16.2656C10.528 16.4244 10.6677 16.5687 10.8437 16.6902L19.5605 22.7176C20.2821 23.2166 21.4786 23.2166 22.2192 22.7045Z" fill="#7F5AF0"/>
</svg>