<svg xmlns="http://www.w3.org/2000/svg" width="46" height="32" viewBox="0 0 46 32" fill="none">
  <path d="M10.8438 8.81129C10.6677 8.93278 10.5281 9.07708 10.4328 9.23594C10.3375 9.39479 10.2884 9.56509 10.2884 9.73707C10.2884 9.90906 10.3375 10.0793 10.4328 10.2382C10.5281 10.3971 10.6677 10.5414 10.8438 10.6628L18.1932 15.7579L10.8248 20.853C10.649 20.9745 10.5095 21.1189 10.4143 21.2777C10.3192 21.4365 10.2702 21.6068 10.2702 21.7787C10.2702 21.9507 10.3192 22.1209 10.4143 22.2798C10.5095 22.4386 10.649 22.5829 10.8248 22.7045C11.0006 22.8261 11.2093 22.9225 11.4391 22.9883C11.6688 23.0541 11.915 23.088 12.1636 23.088C12.4123 23.088 12.6585 23.0541 12.8882 22.9883C13.1179 22.9225 13.3267 22.8261 13.5025 22.7045L22.2193 16.6771C22.3953 16.5556 22.535 16.4113 22.6303 16.2525C22.7256 16.0936 22.7747 15.9233 22.7747 15.7513C22.7747 15.5794 22.7256 15.4091 22.6303 15.2502C22.535 15.0913 22.3953 14.947 22.2193 14.8256L13.5025 8.79817C12.7808 8.29916 11.5844 8.29916 10.8438 8.81129Z" fill="#7F5AF0"/>
  <path d="M23.3587 8.81129C23.1826 8.93278 23.0429 9.07708 22.9476 9.23594C22.8523 9.39479 22.8033 9.56509 22.8033 9.73707C22.8033 9.90906 22.8523 10.0793 22.9476 10.2382C23.0429 10.3971 23.1826 10.5414 23.3587 10.6628L30.7081 15.7579L23.3397 20.853C22.9846 21.0985 22.7851 21.4315 22.7851 21.7787C22.7851 22.126 22.9846 22.459 23.3397 22.7045C23.6948 22.95 24.1764 23.088 24.6785 23.088C25.1807 23.088 25.6623 22.95 26.0174 22.7045L34.7342 16.6771C34.9102 16.5556 35.0499 16.4113 35.1452 16.2525C35.2405 16.0936 35.2896 15.9233 35.2896 15.7513C35.2896 15.5794 35.2405 15.4091 35.1452 15.2502C35.0499 15.0913 34.9102 14.947 34.7342 14.8256L26.0174 8.79817C25.2957 8.29916 24.0993 8.29916 23.3587 8.81129Z" fill="#7F5AF0"/>
</svg>